# AST/ASF file generated using VICON BodyLanguage
# -----------------------------------------------
:version 1.10
:name VICON
:units
  mass 1.0
  length 0.45
  angle deg
:documentation
   .ast/.asf automatically generated from VICON data using
   VICON BodyBuilder and BodyLanguage model FoxedUp or BRILLIANT.MOD
:root
   order TX TY TZ RX RY RZ
   axis XYZ
   position 0 0 0  
   orientation 0 0 0 
:bonedata
  begin
     id 1 
     name lhipjoint
     direction 0.643822 -0.745931 0.170529 
     length 2.62041 
     axis 0 0 0  XYZ
  end
  begin
     id 2 
     name lfemur
     direction 0.34202 -0.939693 0  
     length 7.92179  
     axis 0 0 20  XYZ
    dof rx ry rz
    limits (-160.0 20.0)
           (-70.0 70.0)
           (-60.0 70.0)
  end
  begin
     id 3 
     name ltibia
     direction 0.34202 -0.939693 0   
     length 8.16326   
     axis 0 0 20   XYZ
    dof rx
    limits (-10.0 170.0)
  end
  begin
     id 4 
     name lfoot
     direction 0.0837341 -0.230058 0.969568   
     length 1.94455   
     axis -90 7.62852e-016 20   XYZ
    dof rx rz
    limits (-45.0 90.0)
           (-70.0 20.0)
  end
  begin
     id 5 
     name ltoes
     direction 1.5356e-011 -4.21695e-011 1   
     length 0.978804   
     axis -90 7.62852e-016 20   XYZ
    dof rx
    limits (-90.0 20.0)
  end
  begin
     id 6 
     name rhipjoint
     direction -0.656883 -0.73503 0.168037   
     length 2.65927  
     axis 0 0 0  XYZ 
  end
  begin
     id 7 
     name rfemur
     direction -0.34202 -0.939693 0   
     length 7.58746   
     axis 0 0 -20   XYZ
    dof rx ry rz
    limits (-160.0 20.0)
           (-70.0 70.0)
           (-70.0 60.0)
  end
  begin
     id 8 
     name rtibia
     direction -0.342117 -0.939657 0   
     length 8.27303   
     axis 0 0 -20   XYZ
    dof rx
    limits (-10.0 170.0)
 end
 begin
     id 9 
     name rfoot
     direction -0.0685862 -0.188439 0.979687   
     length 2.13088  
     axis -90 -7.62852e-016 -20   XYZ
    dof rx rz
    limits (-45.0 90.0)
           (-20.0 70.0)
  end
  begin
     id 10 
     name rtoes
     direction -1.53538e-011 -4.21514e-011 1   
     length 1.07326   
     axis -90 -7.62852e-016 -20   XYZ
    dof rx
    limits (-90.0 20.0)
  end
  begin
     id 11 
     name lowerback
     direction -0.0358974 0.997216 0.065354   
     length 1.87174   
     axis 0 0 0   XYZ
    dof rx ry rz
    limits (-20.0 45.0)
           (-30.0 30.0)
           (-30.0 30.0)
  end
  begin
     id 12 
     name upperback
     direction 0.0202028 0.998565 0.0495864   
     length 1.8684   
     axis 0 0 0   XYZ
    dof rx ry rz
    limits (-20.0 45.0)
           (-30.0 30.0)
           (-30.0 30.0)
  end
  begin
     id 13 
     name thorax
     direction 0.0366367 0.999163 0.0182199   
     length 1.87747   
     axis 0 0 0   XYZ
    dof rx ry rz
    limits (-20.0 45.0)
           (-30.0 30.0)
           (-30.0 30.0)
  end
  begin
     id 14 
     name lowerneck
     direction 0.0284381 0.999578 -0.00598196   
     length 1.84583   
     axis 0 0 0   XYZ
    dof rx ry rz
    limits (-20.0 45.0)
           (-30.0 30.0)
           (-30.0 30.0)
  end
  begin
     id 15 
     name upperneck
     direction -0.0888142 0.993333 -0.0734973   
     length 1.84467   
     axis 0 0 0   XYZ
    dof rx ry rz
    limits (-20.0 45.0)
           (-30.0 30.0)
           (-30.0 30.0)
  end
  begin
     id 16
     name head
     direction -0.0296474 0.999102 -0.0302696  
     length 1.86566  
     axis 0 0 0   XYZ
    dof rx ry rz
    limits (-20.0 45.0)
           (-30.0 30.0)
           (-30.0 30.0)
  end
  begin
     id 17 
     name lclavicle
     direction 0.933925 0.35714 -0.0153523  
     length 3.93442  
     axis 0 0 0   XYZ
    dof ry rz
    limits (-20.0 10.0)
           (0.0 20.0)
  end
  begin
     id 18 
     name lhumerus
     direction 1 -4.48967e-011 2.12044e-027   
     length 5.78174   
     axis 180 -30 -90   XYZ
    dof rx ry rz
    limits (-60.0 90.0)
           (-90.0 90.0)
           (-90.0 90.0)
  end
  begin
     id 19
     name lradius
     direction 1 -4.48972e-011 6.45701e-027   
     length 3.53992   
     axis 180 -30 -90   XYZ
    dof rx
    limits (-10.0 170.0)
  end
  begin
     id 20
     name lwrist
     direction 1 -4.48981e-011 1.70244e-026   
     length 1.76996   
     axis -1.1226e-014 90 90   XYZ
    dof ry
    limits (-180.0 0.0)
 end
  begin
     id 21 
     name lhand
     direction 1 -4.4879e-011 3.40615e-026   
     length 0.550243   
     axis -2.17265e-014 90 90   XYZ
    dof rx rz
    limits (-90.0 90.0)
           (-45.0 45.0)
  end
  begin
     id 22 
     name lfingers
     direction 1 -4.49029e-011 6.80911e-026   
     length 0.44362   
     axis -4.34526e-014 90 90   XYZ
    dof rx
    limits (0.0 90.0)
  end
  begin
     id 23
     name lthumb
     direction 0.707107 -6.34923e-011 0.707107   
     length 0.636952   
     axis -90 45 -1.62303e-014   XYZ
    dof rx rz
    limits (-45.0 45.0)
           (-45.0 45.0)
  end
  begin
     id 24 
     name rclavicle
     direction -0.950832 0.305106 0.0531883   
     length 3.96125  
     axis 0 0 0   XYZ 
    dof ry rz
    limits (-10.0 20.0)
           (-20.0 0.0)
  end
  begin
     id 25 
     name rhumerus
     direction -1 -4.48961e-011 -6.07392e-030  
     length 5.79352   
     axis 180 30 90   XYZ
    dof rx ry rz
    limits (-90.0 60.0)
           (-90.0 90.0)
           (-90.0 90.0)
  end
  begin
     id 26 
     name rradius
     direction -1 -4.48964e-011 5.97548e-027   
     length 3.37081   
     axis 180 30 90   XYZ
    dof rx
    limits (-10.0 170.0)
  end
  begin
     id 27 
     name rwrist
     direction -1 -4.49021e-011 1.7023e-026   
     length 1.68541   
     axis -1.1226e-014 -90 -90   XYZ
    dof ry
    limits (-180.0 0.0)
  end
  begin
     id 28
     name rhand
     direction -1 -4.48867e-011 3.40563e-026   
     length 0.679827   
     axis -2.17265e-014 -90 -90   XYZ
    dof rx rz
    limits (-90.0 90.0)
           (-45.0 45.0)
  end
  begin
     id 29
     name rfingers
     direction -1 -4.49024e-011 6.80917e-026   
     length 0.548094   
     axis -4.34526e-014 -90 -90   XYZ
    dof rx
    limits (0.0 90.0)
  end
  begin
     id 30
     name rthumb
     direction -0.707107 -6.3488e-011 0.707107   
     length 0.786956   
     axis -90 -45 1.62303e-014   XYZ
    dof rx rz
    limits (-45.0 45.0)
           (-45.0 45.0)
  end
:hierarchy
  begin
    root lhipjoint rhipjoint lowerback
    lhipjoint lfemur
    lfemur ltibia
    ltibia lfoot
    lfoot ltoes
    rhipjoint rfemur
    rfemur rtibia
    rtibia rfoot
    rfoot rtoes
    lowerback upperback
    upperback thorax
    thorax lowerneck lclavicle rclavicle
    lowerneck upperneck
    upperneck head
    lclavicle lhumerus
    lhumerus lradius
    lradius lwrist
    lwrist lhand lthumb
    lhand lfingers
    rclavicle rhumerus
    rhumerus rradius
    rradius rwrist
    rwrist rhand rthumb
    rhand rfingers
  end

#!OML:ASF H:\Terrain\Patient Classification 1\PaulMetrics\Match1Take2\PaulMetrics.ASF
:FULLY-SPECIFIED
:DEGREES
597
root 2.44967 18.54 9.41281 13.9722 37.826 1.91283
lowerback -6.84874 -1.47548 -7.49876
upperback -6.19726 -1.53573 1.22837
thorax -2.39901 -0.447705 5.41741
lowerneck -2.18783 8.46666 5.02792
upperneck 6.56016 11.7611 -8.13913
head 3.42898 5.75441 -3.09776
rclavicle -2.1857e-014 7.45443e-015
rhumerus -59.5755 15.6186 -93.1657
rradius 43.0608
rwrist -8.5062
rhand -8.69842 -32.2315
rfingers 7.12502
rthumb 17.2367 -61.487
lclavicle -2.1857e-014 7.45443e-015
lhumerus -47.461 -16.5239 85.7105
lradius 65.2622
lwrist 7.02581
lhand -19.9705 -7.6357
lfingers 7.12502
lthumb 6.36833 22.2486
rfemur -37.328 -2.73267 17.4085
rtibia 65.9203
rfoot -5.02863 -9.78133
rtoes -17.1585
lfemur -25.0665 -1.83772 -28.6408
ltibia 29.8872
lfoot -18.3934 1.49386
ltoes -19.1574
598
root 2.53184 18.524 9.51008 14.0354 38.1018 1.8026
lowerback -6.72804 -1.47798 -7.30929
upperback -6.29987 -1.5589 1.19353
thorax -2.57336 -0.455962 5.27588
lowerneck -1.79504 8.24501 5.67826
upperneck 6.62616 11.5187 -8.99097
head 3.11559 5.61538 -3.17359
rclavicle -1.8341e-015 1.7344e-014
rhumerus -59.7941 15.3939 -93.2736
rradius 43.2518
rwrist -8.47614
rhand -8.93015 -31.9924
rfingers 7.12502
rthumb 17.0137 -61.2673
lclavicle -1.8341e-015 1.7344e-014
lhumerus -47.2597 -17.2192 85.4578
lradius 66.5967
lwrist 7.77388
lhand -20.1556 -7.34044
lfingers 7.12502
lthumb 6.18963 22.5491
rfemur -38.3733 -2.54141 17.5392
rtibia 64.9808
rfoot -5.55015 -9.88489
rtoes -16.1223
lfemur -24.81 -1.8789 -28.5441
ltibia 29.9868
lfoot -18.9053 1.25299
ltoes -18.2058
599
root 2.62279 18.5137 9.60411 14.239 38.3503 1.9109
lowerback -6.67855 -1.47427 -7.14984
upperback -6.23431 -1.56433 1.14858
thorax -2.53326 -0.469424 5.13817
lowerneck -2.10847 8.17382 5.82329
upperneck 6.48223 11.4182 -9.30648
head 3.14318 5.55295 -3.28383
rclavicle -1.55704e-014 -1.16289e-014
rhumerus -59.6472 15.4524 -93.3546
rradius 43.32
rwrist -8.86985
rhand -9.41173 -31.9096
rfingers 7.12502
rthumb 16.5501 -61.2238
lclavicle -1.55704e-014 -1.16289e-014
lhumerus -46.7123 -17.8244 85.2242
lradius 67.9999
lwrist 8.50159
lhand -20.6561 -7.09825
lfingers 7.12502
lthumb 5.70639 22.8049
rfemur -39.3252 -2.39374 17.4338
rtibia 63.9166
rfoot -6.21088 -9.84663
rtoes -15.1366
lfemur -24.5157 -1.95639 -28.6614
ltibia 30.1218
lfoot -19.2778 1.01548
ltoes -18.3336
600
root 2.71161 18.5003 9.71294 14.3343 38.5905 1.95195
lowerback -6.76342 -1.57914 -7.17614
upperback -6.1417 -1.69334 1.2688
thorax -2.36691 -0.540604 5.26946
lowerneck -2.523 8.40317 5.35667
upperneck 6.40256 11.6909 -8.89025
head 3.15721 5.67914 -3.05609
rclavicle -3.40357e-014 6.65929e-015
rhumerus -59.6299 15.8642 -93.4491
rradius 43.4105
rwrist -9.24359
rhand -9.66097 -31.7003
rfingers 7.12502
rthumb 16.3101 -61.0344
lclavicle -3.40357e-014 6.65929e-015
lhumerus -46.2312 -18.0296 85.0237
lradius 69.2102
lwrist 8.94385
lhand -20.8166 -7.43891
lfingers 7.12502
lthumb 5.55146 22.4684
rfemur -40.0548 -2.16935 17.4629
rtibia 62.7136
rfoot -6.88888 -10.0676
rtoes -16.4628
lfemur -24.0885 -1.96409 -28.6893
ltibia 30.1592
lfoot -19.0678 1.24931
ltoes -23.7593
601
root 2.79644 18.4864 9.8307 14.2824 38.8755 1.95878
lowerback -6.81397 -1.65922 -7.3354
upperback -6.09826 -1.78644 1.40337
thorax -2.27399 -0.584285 5.49435
lowerneck -2.71352 8.50093 4.91999
upperneck 6.35567 11.771 -8.06144
head 3.4428 5.74793 -3.0309
rclavicle 6.63817e-014 3.88624e-014
rhumerus -59.7586 15.9288 -93.3863
rradius 43.521
rwrist -9.15322
rhand -9.67756 -31.695
rfingers 7.12502
rthumb 16.2941 -61.0304
lclavicle 6.63817e-014 3.88624e-014
lhumerus -45.8529 -18.4785 85.0058
lradius 70.1807
lwrist 9.59962
lhand -21.0736 -7.67497
lfingers 7.12502
lthumb 5.30324 22.2387
rfemur -40.5756 -1.98651 17.5326
rtibia 61.373
rfoot -7.22975 -10.2561
rtoes -18.6052
lfemur -23.4952 -2.06585 -28.6363
ltibia 30.1306
lfoot -20.2998 0.473123
ltoes -17.1654
602
root 2.88083 18.4792 9.93903 14.4716 39.1215 2.42588
lowerback -6.6414 -1.69824 -7.71475
upperback -6.13841 -1.8372 1.34883
thorax -2.40076 -0.591009 5.65385
lowerneck -2.4779 8.4207 4.68042
upperneck 6.29505 11.6562 -7.81035
head 3.32919 5.69902 -2.92026
rclavicle -5.02863e-014 -5.96354e-016
rhumerus -59.8765 15.6316 -93.2274
rradius 43.5613
rwrist -8.95558
rhand -9.68541 -31.8139
rfingers 7.12502
rthumb 16.2866 -61.1499
lclavicle -5.02863e-014 -5.96354e-016
lhumerus -45.8148 -19.1766 85.1085
lradius 71.3745
lwrist 10.5939
lhand -22.2663 -7.80094
lfingers 7.12502
lthumb 4.15163 22.1384
rfemur -41.0513 -1.92702 17.1171
rtibia 59.8874
rfoot -7.38454 -10.1119
rtoes -18.8067
lfemur -22.8524 -2.25216 -28.9851
ltibia 30.1306
lfoot -20.7517 0.261808
ltoes -16.4037
603
root 2.96245 18.4653 10.0439 14.5798 39.4163 2.58197
lowerback -6.56265 -1.82689 -7.86941
upperback -6.10266 -2.00792 1.40035
thorax -2.37626 -0.672938 5.78782
lowerneck -2.30464 8.45305 4.6789
upperneck 5.99158 11.6913 -7.91812
head 3.20312 5.72196 -2.9657
rclavicle -1.86795e-014 3.8763e-015
rhumerus -59.794 15.812 -93.2582
rradius 43.6436
rwrist -9.21526
rhand -9.77743 -31.9515
rfingers 7.12502
rthumb 16.198 -61.2947
lclavicle -1.86795e-014 3.8763e-015
lhumerus -45.673 -19.6418 85.0208
lradius 72.5732
lwrist 11.6403
lhand -23.7203 -8.21943
lfingers 7.12502
lthumb 2.74744 21.7426
rfemur -41.5502 -1.7393 16.9921
rtibia 58.2327
rfoot -7.60605 -10.3412
rtoes -19.122
lfemur -22.3594 -2.35023 -29.0692
ltibia 30.0977
lfoot -21.2134 0.140273
ltoes -17.7867
604
root 3.04683 18.4567 10.1496 14.3406 39.8118 2.09609
lowerback -6.50406 -1.9134 -7.52777
upperback -6.06964 -2.1399 1.59539
thorax -2.35329 -0.74971 5.79351
lowerneck -2.35038 8.48569 4.84464
upperneck 5.88903 11.7327 -8.09349
head 3.20662 5.74201 -3.05175
rclavicle 2.11395e-014 -6.16232e-015
rhumerus -59.737 16.0025 -93.2976
rradius 43.8244
rwrist -9.52266
rhand -9.72109 -32.0202
rfingers 7.12502
rthumb 16.2522 -61.359
lclavicle 2.11395e-014 -6.16232e-015
lhumerus -45.2866 -20.022 84.7581
lradius 73.5306
lwrist 12.0184
lhand -24.1376 -8.3858
lfingers 7.12502
lthumb 2.34442 21.5811
rfemur -41.9297 -1.38683 17.4143
rtibia 56.3679
rfoot -8.28007 -10.8787
rtoes -18.0522
lfemur -21.8739 -2.443 -28.5937
ltibia 29.9268
lfoot -21.5661 0.0113423
ltoes -19.2511
605
root 3.13733 18.4601 10.2541 14.2449 40.1639 1.89639
lowerback -6.333 -1.94605 -7.28079
upperback -6.17549 -2.20739 1.66464
thorax -2.55237 -0.778742 5.72986
lowerneck -2.09919 8.41656 4.98305
upperneck 5.85788 11.6477 -8.19423
head 3.16144 5.70745 -3.12697
rclavicle 4.14342e-014 -1.59028e-015
rhumerus -59.9674 15.8914 -93.2787
rradius 44.0085
rwrist -9.44842
rhand -9.51861 -31.8069
rfingers 7.12502
rthumb 16.4472 -61.1296
lclavicle 4.14342e-014 -1.59028e-015
lhumerus -45.2746 -20.3155 84.4717
lradius 74.6198
lwrist 11.7811
lhand -23.8706 -8.29526
lfingers 7.12502
lthumb 2.60237 21.6686
rfemur -42.2547 -1.15657 17.5222
rtibia 54.3714
rfoot -9.21079 -11.2293
rtoes -15.6857
lfemur -21.2867 -2.54288 -28.3819
ltibia 29.7287
lfoot -21.5202 -0.045312
ltoes -19.8002
606
root 3.22795 18.4632 10.3622 14.5193 40.3526 2.28181
lowerback -6.32014 -1.97884 -7.47436
upperback -6.20486 -2.24566 1.58141
thorax -2.58339 -0.790073 5.75078
lowerneck -1.49739 8.29426 5.21041
upperneck 5.33002 11.4829 -8.56393
head 2.90304 5.64471 -3.33584
rclavicle 5.72935e-014 1.51076e-014
rhumerus -60.0864 15.9291 -93.3589
rradius 44.0487
rwrist -9.40109
rhand -9.63464 -31.4598
rfingers 7.12502
rthumb 16.3355 -60.7918
lclavicle 5.72935e-014 1.51076e-014
lhumerus -45.162 -20.6596 84.2214
lradius 75.6288
lwrist 11.8373
lhand -24.082 -8.33247
lfingers 7.12502
lthumb 2.39818 21.6338
rfemur -42.5807 -0.963697 17.0917
rtibia 52.2552
rfoot -10.224 -11.5951
rtoes -14.1333
lfemur -20.6333 -2.53348 -28.6986
ltibia 29.4272
lfoot -21.5936 -0.285773
ltoes -18.287
